<?xml version="1.0" encoding="UTF-8"?>
<svg height="128px" viewBox="0 0 128 128" width="128px" xmlns="http://www.w3.org/2000/svg">
    <path d="m 108.941406 104.425781 c -0.117187 0.152344 -0.242187 0.304688 -0.371094 0.449219 c -5.4375 6.144531 -13.132812 9.902344 -21.386718 10.449219 c -2.761719 0.191406 -6.296875 0.101562 -9.125 0.101562 l -15.007813 0.003907 h -13.464843 c -4.71875 0 -8.789063 0.171874 -13.421876 -0.734376 c -13.226562 -2.582031 -23.488281 -13.488281 -24.292968 -26.886718 c -0.222656 -3.6875 -0.179688 -7.308594 -0.179688 -11.03125 v -28.410156 c 0 -3.976563 -0.136718 -7.902344 0.632813 -11.835938 c 0.992187 -5.054688 3.246093 -9.785156 6.636719 -13.691406 c 5.484374 -6.3125 13.253906 -9.828125 21.621093 -10.335938 c 2.757813 -0.167968 5.585938 -0.113281 8.375 -0.113281 h 27.605469 c 6.117188 0.007813 11.710938 -0.339844 17.65625 1.34375 c 3.828125 1.109375 7.402344 2.9375 10.523438 5.386719 c 0.859374 0.679687 1.644531 1.464844 2.472656 2.179687 l 0.394531 0.433594 c 0.359375 0.347656 1.433594 1.507813 1.6875 1.910156 c 1.957031 0.390625 4.53125 -0.75 5.945313 1.242188 c 0.847656 1.195312 0.640624 2.570312 0.640624 3.964843 v 3.722657 l -0.003906 12.378906 l -0.042968 8.476563 c 0 1.433593 0.074218 2.980468 -0.023438 4.414062 c -0.023438 0.371094 -0.3125 0.449219 -0.359375 0.917969 c 0.058594 1.136719 0.363281 2.046875 0.648437 3.15625 c 0.488282 1.917969 0.402344 4.183593 -0.027343 6.109375 c -0.175781 0.785156 -0.472657 1.46875 -0.566407 2.265625 c -0.003906 0.3125 -0.015624 0.453125 0.058594 0.761719 c 0.039063 0.0625 0.117188 0.1875 0.144532 0.25 c 0.210937 1.195312 0.132812 3.507812 0.144531 4.839843 c 0.03125 3.351563 0.042969 6.699219 0.03125 10.050781 l -0.003907 10.175782 c 0 1.765625 0.023438 3.574218 -0.019531 5.339844 c -0.011719 0.421874 -0.21875 1.011718 -0.484375 1.355468 c -0.589844 0.761719 -1 1.023438 -1.925781 1.242188 c -0.800781 0.191406 -4.070313 -0.039063 -4.511719 0.117187 z m 0 0" fill="#0c1b21"/>
    <path d="m 108.941406 104.425781 c -0.117187 0.152344 -0.242187 0.304688 -0.371094 0.449219 c -5.4375 6.144531 -13.132812 9.902344 -21.386718 10.449219 c -2.761719 0.191406 -6.296875 0.101562 -9.125 0.101562 l -15.007813 0.003907 h -13.464843 c -4.71875 0 -8.789063 0.171874 -13.421876 -0.734376 c -13.226562 -2.582031 -23.488281 -13.488281 -24.292968 -26.886718 c -0.222656 -3.6875 -0.179688 -7.308594 -0.179688 -11.03125 v -28.410156 c 0 -3.976563 -0.136718 -7.902344 0.632813 -11.835938 c 0.992187 -5.054688 3.246093 -9.785156 6.636719 -13.691406 c 5.484374 -6.3125 13.253906 -9.828125 21.621093 -10.335938 c 2.757813 -0.167968 5.585938 -0.113281 8.375 -0.113281 h 27.605469 c 6.117188 0.007813 11.710938 -0.339844 17.65625 1.34375 c 3.828125 1.109375 7.402344 2.9375 10.523438 5.386719 c 0.859374 0.679687 1.644531 1.464844 2.472656 2.179687 l 0.394531 0.433594 c 0.359375 0.347656 1.433594 1.507813 1.6875 1.910156 c -0.226563 0.058594 -2.753906 0.054688 -3.15625 0.054688 h -8.085937 c -0.421876 0 -0.84375 0.007812 -1.265626 0.023437 c -0.117187 0.003906 -0.582031 0.050782 -0.65625 0.042969 c -0.332031 -0.113281 -7.707031 -0.058594 -8.316406 0.003906 c -0.253906 0.027344 -0.503906 0.097657 -0.734375 0.207031 c -1.347656 0.632813 -1.769531 1.367188 -2.007812 2.765626 c -0.058594 1.566406 -0.019531 3.324218 -0.019531 4.90625 l -33.972657 -0.003907 h -10.332031 l -3.339844 -0.003906 c -1.453125 0 -2.761718 -0.128906 -3.886718 0.984375 c -1.128907 1.117188 -0.898438 3.273438 -0.894532 4.75 l 0.007813 3.726562 l 0.027343 14.003907 v 31.671875 c -0.007812 1.378906 -0.0625 2.761718 -0.023437 4.140625 c 0.027344 0.765625 0.003906 1.507812 0.386719 2.203125 c 0.558594 1.011718 1.476562 1.609375 2.65625 1.660156 c 1.5 0.058594 3.003906 0 4.503906 0.007812 c 3.976562 0.023438 7.953125 0.019532 11.929688 -0.003906 l 19.835937 0.015625 c 4.324219 0.03125 8.648437 0.011719 12.972656 -0.058593 c 0.144531 -0.109376 0.082031 -0.042969 0.132813 -0.273438 c -0.019532 1.726562 -0.0625 3.871094 -0.003906 5.585938 c 0.011718 1.730468 -0.058594 2.945312 1.6875 3.875 c 0.203124 0.109374 0.769531 0.300781 0.957031 0.3125 c 0.890625 0.058593 7.871093 0.152343 8.171875 -0.023438 c 1.210937 0.203125 2.296875 0.074219 3.507812 0.101562 c 2.578125 0.050782 5.15625 -0.007812 7.730469 0.011719 c 0.347656 0.003907 1.566406 0 1.832031 0.09375 z m 0 0" fill="#47565d"/>
    <path d="m 85.054688 100.054688 l -0.390626 0.007812 c -4.039062 0.070312 -8.234374 0.011719 -12.289062 0.007812 h -33.929688 c -2.058593 0 -4.273437 0.0625 -6.3125 -0.128906 c -1.835937 -0.171875 -3.5625 -1.738281 -4.304687 -3.335937 c -0.417969 -0.902344 -0.480469 -1.828125 -0.488281 -2.828125 l 0.011718 -41.855469 l -0.007812 -13.390625 v -4.015625 c 0 -2.457031 -0.132812 -4.265625 1.757812 -6.136719 c 0.863282 -0.863281 1.984376 -1.429687 3.199219 -1.613281 c 1.332031 -0.191406 4.167969 -0.109375 5.640625 -0.109375 h 10.566406 l 36.082032 -0.011719 c 0.203125 0 0.359375 -0.023437 0.484375 0.097657 c -0.058594 1.566406 -0.019531 3.324218 -0.019531 4.90625 l -33.972657 -0.003907 h -10.332031 l -3.339844 -0.003906 c -1.453125 0 -2.761718 -0.128906 -3.886718 0.984375 c -1.128907 1.117188 -0.898438 3.273438 -0.894532 4.75 l 0.007813 3.726562 l 0.027343 14.003907 v 31.671875 c -0.007812 1.378906 -0.0625 2.761718 -0.023437 4.140625 c 0.027344 0.765625 0.003906 1.507812 0.386719 2.203125 c 0.558594 1.011718 1.476562 1.609375 2.65625 1.660156 c 1.5 0.058594 3.003906 0 4.503906 0.007812 c 3.976562 0.023438 7.953125 0.019532 11.929688 0 l 19.835937 0.011719 c 4.324219 0.03125 8.648437 0.011719 12.972656 -0.058593 c 0.144531 -0.109376 0.082031 -0.042969 0.132813 -0.273438 c -0.019532 1.726562 -0.0625 3.871094 -0.003906 5.585938 z m 0 0" fill="#313f46"/>
    <path d="m 109.296875 23.644531 c 1.957031 0.390625 4.53125 -0.75 5.945313 1.242188 c 0.847656 1.195312 0.644531 2.570312 0.640624 3.964843 v 3.722657 l -0.003906 12.378906 l -0.042968 8.476563 c 0 1.433593 0.074218 2.980468 -0.023438 4.414062 c -0.023438 0.371094 -0.3125 0.449219 -0.359375 0.917969 c 0.058594 1.136719 0.363281 2.046875 0.648437 3.15625 c 0.488282 1.917969 0.402344 4.183593 -0.027343 6.109375 c -0.175781 0.785156 -0.472657 1.46875 -0.566407 2.265625 c -0.003906 0.3125 -0.015624 0.453125 0.058594 0.761719 c 0.039063 0.0625 0.117188 0.1875 0.144532 0.25 c 0.210937 1.195312 0.132812 3.507812 0.144531 4.839843 c 0.03125 3.351563 0.042969 6.699219 0.03125 10.050781 l -0.003907 10.175782 c 0 1.765625 0.023438 3.574218 -0.019531 5.339844 c -0.011719 0.421874 -0.21875 1.011718 -0.484375 1.355468 c -0.589844 0.761719 -1 1.023438 -1.925781 1.242188 c -0.800781 0.191406 -4.070313 -0.039063 -4.511719 0.117187 c -0.261718 -0.09375 -1.484375 -0.089843 -1.832031 -0.09375 c -2.574219 -0.019531 -5.152344 0.039063 -7.730469 -0.011719 c -1.210937 -0.027343 -2.296875 0.101563 -3.507812 -0.101562 c -0.300782 0.175781 -7.28125 0.082031 -8.171875 0.023438 c -0.1875 -0.011719 -0.753907 -0.203126 -0.957031 -0.3125 c -1.746094 -0.929688 -1.671876 -2.144532 -1.6875 -3.875 c -0.058594 -1.714844 -0.015626 -3.859376 0.003906 -5.585938 c -0.070313 -2.308594 -0.003906 -4.964844 -0.003906 -7.296875 v -55.523437 c 0 -1.582032 -0.039063 -3.339844 0.019531 -4.90625 c 0.238281 -1.398438 0.660156 -2.132813 2.007812 -2.765626 c 0.230469 -0.109374 0.480469 -0.179687 0.734375 -0.207031 c 0.609375 -0.0625 7.984375 -0.117187 8.316406 -0.003906 c 0.074219 0.007813 0.539063 -0.039063 0.65625 -0.042969 c 0.421876 -0.015625 0.84375 -0.023437 1.265626 -0.023437 h 8.085937 c 0.402344 0 2.929687 0.003906 3.15625 -0.054688 z m 0 0" fill="#313f46"/>
    <path d="m 85.074219 26.742188 c 0.238281 -1.398438 0.660156 -2.132813 2.007812 -2.765626 c 0.230469 -0.109374 0.480469 -0.179687 0.734375 -0.207031 c 0.609375 -0.0625 7.984375 -0.117187 8.316406 -0.003906 c -1.457031 0.460937 -2.242187 1.566406 -2.265624 3.0625 c -0.058594 3.632813 -0.035157 7.265625 -0.035157 10.894531 l 0.03125 22.214844 l -0.023437 27.878906 l -0.007813 7.351563 c -0.003906 1.496093 -0.1875 6.175781 0.242188 7.328125 c 0.265625 0.703125 0.792969 1.332031 1.503906 1.625 c 0.09375 0.039062 0.195313 0.070312 0.292969 0.097656 c -0.300782 0.175781 -7.28125 0.082031 -8.171875 0.023438 c -0.1875 -0.011719 -0.753907 -0.203126 -0.957031 -0.3125 c -1.746094 -0.929688 -1.675782 -2.144532 -1.6875 -3.875 c -0.058594 -1.714844 -0.015626 -3.859376 0.003906 -5.585938 c -0.070313 -2.308594 -0.003906 -4.964844 -0.003906 -7.296875 l -0.003907 -13.738281 l 0.003907 -41.785156 c 0 -1.582032 -0.039063 -3.339844 0.019531 -4.90625 z m 0 0" fill="#5c6a71"/>
    <path d="m 88.929688 44.371094 c 1.148437 -0.238282 2.269531 0.492187 2.5 1.625 c 0.230468 1.128906 -0.519532 2.230468 -1.667969 2.449218 c -1.136719 0.21875 -2.238281 -0.511718 -2.46875 -1.628906 c -0.226563 -1.121094 0.503906 -2.214844 1.636719 -2.445312 z m 0 0" fill="#adb4b8"/>
    <path d="m 89.054688 62.5625 c 1.15625 -0.167969 2.230468 0.621094 2.394531 1.761719 c 0.167969 1.140625 -0.640625 2.195312 -1.796875 2.351562 c -1.152344 0.15625 -2.210938 -0.632812 -2.375 -1.761719 c -0.164063 -1.132812 0.628906 -2.183593 1.777344 -2.351562 z m 0 0" fill="#adb4b8"/>
    <path d="m 89.226562 80.847656 c 1.160157 -0.074218 2.15625 0.792969 2.230469 1.933594 c 0.070313 1.140625 -0.808593 2.125 -1.96875 2.195312 c -1.152343 0.070313 -2.148437 -0.796874 -2.222656 -1.933593 c -0.070313 -1.140625 0.804687 -2.125 1.960937 -2.195313 z m 0 0" fill="#adb4b8"/>
    <path d="m 115.507812 70.292969 c -0.078124 0.5 -0.308593 1.015625 -0.421874 1.511719 c -0.722657 3.132812 -2.730469 8.121093 -6.832032 7.347656 c -1.3125 -0.246094 -2.609375 -1.675782 -3.28125 -2.75 c -2.5625 -4.402344 -2.996094 -9.894532 -2.535156 -14.859375 c 0.125 -1.136719 0.375 -2.347657 0.617188 -3.445313 c 1.945312 -8.773437 8.664062 -11.136718 11.75 -1.359375 c 0.132812 0.414063 0.425781 1.707031 0.648437 2.023438 c 0.058594 1.136719 0.363281 2.046875 0.648437 3.15625 c 0.488282 1.917969 0.402344 4.183593 -0.027343 6.109375 c -0.175781 0.785156 -0.472657 1.46875 -0.566407 2.265625 z m 0 0" fill="#adb4b8"/>
    <path d="m 108.941406 51.972656 c 2.75 -0.199218 4.378906 4.621094 4.820313 6.746094 c -1.027344 -0.003906 -2.472657 -0.078125 -3.449219 0.066406 c -1.128906 0.171875 -2.011719 2.355469 -2.21875 3.28125 c -0.570312 2.570313 -0.570312 7.511719 2.234375 8.828125 c 0.238281 0.109375 2.90625 0.066407 3.390625 0.070313 c -0.4375 1.6875 -0.738281 2.761718 -1.605469 4.355468 c -0.742187 1.5 -2.496093 3.148438 -4.238281 1.976563 c -1.683594 -1.128906 -2.847656 -4.082031 -3.273438 -5.992187 c -1.230468 -5.523438 -1.105468 -12.226563 1.722657 -17.261719 c 0.605469 -1.039063 1.417969 -1.800781 2.617187 -2.070313 z m 0 0" fill="#313f46"/>
    <g fill="#adb4b8">
        <path d="m 109.625 54.09375 c 0.953125 0.21875 0.925781 1.839844 0.066406 2.269531 c -0.6875 -0.195312 -0.78125 -0.796875 -0.679687 -1.433593 c 0.074219 -0.472657 0.21875 -0.585938 0.613281 -0.835938 z m 0 0"/>
        <path d="m 105.316406 64.355469 c 0.101563 -0.007813 0.199219 -0.011719 0.300782 -0.015625 c 0.652343 -0.007813 1.242187 0.460937 0.484374 0.945312 c -0.839843 0.21875 -1.527343 -0.402344 -0.785156 -0.929687 z m 0 0"/>
        <path d="m 106.890625 57.617188 c 0.523437 0.054687 0.773437 0.46875 0.628906 0.960937 c -0.550781 -0.015625 -0.851562 -0.445313 -0.628906 -0.960937 z m 0 0"/>
        <path d="m 111.980469 56.601562 c 0.628906 0.0625 0.355469 0.710938 -0.007813 0.984376 c -0.570312 -0.171876 -0.300781 -0.703126 0.007813 -0.984376 z m 0 0"/>
        <path d="m 111.757812 72.132812 c 0.621094 0.113282 0.570313 0.488282 0.453126 0.988282 c -0.605469 -0.125 -0.644532 -0.484375 -0.453126 -0.988282 z m 0 0"/>
        <path d="m 107.242188 71.191406 c 0.210937 0.015625 0.257812 0.070313 0.34375 0.238282 c -0.023438 0.300781 -0.226563 0.460937 -0.441407 0.664062 c -0.132812 -0.019531 -0.121093 -0.027344 -0.25 -0.082031 c -0.226562 -0.339844 0.097657 -0.578125 0.347657 -0.820313 z m 0 0"/>
    </g>
    <path d="m 113.3125 59.464844 c 1.285156 0 1.660156 1.503906 1.933594 2.492187 c 0.53125 1.90625 0.582031 7.503907 -1.6875 8.269531 c -0.847656 -0.125 -1.292969 -0.613281 -1.605469 -1.386718 c -0.949219 -2.363282 -0.949219 -5.324219 -0.082031 -7.710938 c 0.285156 -0.785156 0.664062 -1.324218 1.441406 -1.664062 z m 0 0" fill="#313f46"/>
    <path d="m 96.421875 57.183594 c 1.292969 0.007812 2.5625 0.414062 3.191406 1.640625 c 0.550781 1.070312 0.433594 2.183593 0.433594 3.363281 v 3.195312 c 0 1.183594 -0.015625 2.410157 -0.011719 3.585938 c 0.007813 2.5 -1.199218 3.523438 -3.648437 3.644531 c -0.988281 -0.050781 -1.453125 -1.097656 -0.871094 -1.835937 c 0.363281 -0.460938 1.179687 -0.371094 1.730469 -0.425782 c 0.28125 -0.191406 0.339844 -0.269531 0.53125 -0.550781 c 0.082031 -1.457031 0.042968 -3.199219 0.035156 -4.683593 c -0.007812 -1.652344 0.023438 -3.460938 -0.035156 -5.101563 c -0.757813 -1.070313 -2.289063 -0.277344 -2.515625 -1.527344 c -0.132813 -0.714843 0.398437 -1.214843 1.160156 -1.304687 z m 0 0" fill="#adb4b8"/>
    <path d="m 81.613281 52.027344 l 0.078125 0.117187 c 0.09375 0.734375 0.035156 3.113281 0.035156 3.964844 v 21.109375 c 0 2.3125 0.011719 4.609375 -0.027343 6.933594 c -0.019531 1.285156 -0.984375 2.734375 -2.378907 2.890625 c -1.019531 0.113281 -2.265624 0.039062 -3.308593 0.039062 h -6.125 l -13.792969 0.003907 c -2.398438 0 -4.808594 0.007812 -7.207031 -0.007813 c -0.445313 -0.027344 -1.011719 -0.058594 -1.390625 -0.300781 c -1.097656 -0.71875 -1.617188 -1.617188 -1.597656 -2.921875 c 0.011718 -1.148438 -0.003907 -2.3125 0 -3.453125 v -27.535156 l -0.003907 -6.125 c 0 -1.0625 -0.011719 -2.144532 0.011719 -3.210938 c 0.015625 -0.566406 0.15625 -0.941406 0.464844 -1.414062 c 0.40625 -0.621094 1.1875 -1.230469 1.9375 -1.351563 c 0.683594 -0.105469 1.589844 -0.070313 2.300781 -0.066406 l 3.179687 0.003906 h 12.269532 c 1.320312 0 2.640625 -0.011719 3.960937 -0.011719 c 0.035157 0.027344 0.070313 0.050782 0.105469 0.074219 c 0.621094 0.476563 1.589844 1.507813 2.167969 2.078125 l 3.394531 3.335938 l 4.269531 4.195312 c 0.539063 0.535156 1.160157 1.089844 1.65625 1.652344 z m 0 0" fill="#2ed3dd"/>
    <path d="m 70.125 40.765625 c 0.621094 0.476563 1.589844 1.507813 2.167969 2.078125 l 3.394531 3.335938 l 4.269531 4.195312 c 0.539063 0.535156 1.160157 1.089844 1.65625 1.652344 c -0.371093 0.070312 -0.941406 0.058594 -1.328125 0.054687 c -2.386718 -0.035156 -4.78125 0.027344 -7.167968 -0.007812 c -0.84375 -0.015625 -1.777344 -0.433594 -2.316407 -1.066407 c -0.328125 -0.390624 -0.550781 -0.859374 -0.640625 -1.359374 c -0.109375 -0.613282 -0.097656 -3.304688 -0.074218 -4.050782 c 0.035156 -1.359375 -0.078126 -3.539062 0.039062 -4.832031 z m 0 0" fill="#12a1ac"/>
    <path d="m 65.144531 55.558594 c 0.433594 -0.015625 2.183594 0.15625 2.121094 0.769531 c -0.105469 1.105469 -0.433594 2.257813 -0.707031 3.339844 c -0.503906 2.019531 -1.027344 4.039062 -1.5625 6.050781 c -0.6875 2.652344 -1.300782 5.335938 -2.003906 7.984375 c -0.078126 0.285156 -0.234376 0.785156 -0.429688 1 c -0.226562 0 -0.449219 -0.015625 -0.671875 -0.046875 c -0.445313 -0.0625 -1.152344 -0.152344 -1.429687 -0.515625 c -0.097657 -0.566406 0.761718 -3.492187 0.933593 -4.183594 l 2.355469 -9.292969 c 0.222656 -0.867187 1.03125 -4.441406 1.394531 -5.105468 z m 0 0" fill="#fefefe"/>
    <path d="m 57.9375 58.273438 c 0.289062 0.003906 0.492188 0.082031 0.707031 0.296874 c 0.207031 0.199219 1.042969 0.957032 0.953125 1.265626 c -0.148437 0.488281 -1.332031 1.511718 -1.683594 1.859374 c -1.164062 1.132813 -2.320312 2.277344 -3.464843 3.433594 c 0.351562 0.5 1.289062 1.316406 1.765625 1.792969 c 0.632812 0.664063 1.445312 1.378906 2.066406 2.035156 c 0.820312 0.867188 1.96875 1.320313 0.695312 2.425781 c -0.386718 0.335938 -0.433593 0.46875 -0.953124 0.695313 c -0.671876 -0.292969 -3.136719 -3.078125 -3.882813 -3.691406 c -0.8125 -0.671875 -1.859375 -1.882813 -2.648437 -2.628907 c -0.148438 -0.144531 -0.316407 -0.574218 -0.242188 -0.800781 c 0.421875 -0.773437 1.605469 -1.792969 2.199219 -2.371093 l 2.496093 -2.445313 c 0.394532 -0.382813 1.605469 -1.632813 1.992188 -1.867187 z m 0 0" fill="#fefefe"/>
    <path d="m 69.519531 58.214844 c 0.605469 0.171875 2.613281 2.339844 3.175781 2.882812 c 0.742188 0.714844 1.480469 1.4375 2.210938 2.164063 c 0.441406 0.4375 0.878906 0.84375 1.269531 1.324219 c 0.359375 0.4375 0.257813 0.914062 -0.121093 1.300781 c -1.527344 1.566406 -3.113282 3.082031 -4.671876 4.621093 c -0.5 0.492188 -1.101562 1.140626 -1.671874 1.523438 c -0.550782 0.003906 -1.488282 -1.113281 -1.75 -1.566406 c 0.347656 -0.589844 0.941406 -1.027344 1.445312 -1.511719 l 2.046875 -1.996094 c 0.433594 -0.417969 1.445313 -1.367187 1.777344 -1.78125 c -1.347657 -1.453125 -2.800781 -2.796875 -4.207031 -4.195312 c -0.1875 -0.183594 -1.007813 -0.976563 -0.972657 -1.214844 c 0.070313 -0.441406 1.121094 -1.277344 1.46875 -1.550781 z m 0 0" fill="#fefefe"/>
    <path d="m 115.566406 71.054688 c 0.082032 -0.230469 0.125 -0.367188 0.246094 -0.582032 l 0.046875 0.03125 c -0.011719 0.570313 -0.125 0.523438 -0.148437 0.800782 c -0.027344 -0.0625 -0.105469 -0.1875 -0.144532 -0.25 z m 0 0" fill="#5c6a71" fill-opacity="0.113725"/>
    <path d="m 109.496094 74.011719 c -0.503906 -0.378907 -0.289063 -0.695313 0.035156 -1.089844 c 0.488281 0.382813 0.363281 0.722656 -0.035156 1.089844 z m 0 0" fill="#adb4b8"/>
</svg>
