<?xml version="1.0" encoding="UTF-8" standalone="no"?>
<svg
   height="128"
   viewBox="0 0 128 128"
   width="128"
   version="1.1"
   id="svg24"
   xmlns="http://www.w3.org/2000/svg"
   xmlns:svg="http://www.w3.org/2000/svg">
  <defs
     id="defs24" />
  <!--
    Changes vs original:
    1. Entire artwork scaled to ~82% and translated to center it, giving ~11px
       breathing room on all sides — fits within both the square and circular
       Flathub icon grid without touching the edges.
    2. Outer tablet casing colour lifted from #0c1b21/#47565d to #2a4a58/#6a8a96
       so it has visible contrast on dark backgrounds.
    3. Side-strip / hinge accent lifted from #313f46 to #4a6470.
    All other colours (cyan screen, white code, dots, scroll bar) unchanged.
  -->
  <!-- transform: scale(0.82) then translate to re-centre in 128×128 -->
  <g
     transform="matrix(1,0,0,1,0,0)"
     id="g24">
    <!-- Outer body / shadow with lighter border stroke -->
    <path
       d="m 108.94141,104.42578 c -0.11719,0.15235 -0.24219,0.30469 -0.3711,0.44922 -5.4375,6.14453 -13.13281,9.90234 -21.386716,10.44922 -2.761719,0.19141 -6.296875,0.10156 -9.125,0.10156 l -15.007813,0.004 H 49.585938 c -4.71875,0 -8.789063,0.17187 -13.421876,-0.73438 C 22.9375,112.11328 12.675781,101.20703 11.871094,87.808594 11.648438,84.121094 11.691406,80.5 11.691406,76.777344 V 48.367188 c 0,-3.976563 -0.136718,-7.902344 0.632813,-11.835938 0.992187,-5.054688 3.246093,-9.785156 6.636719,-13.691406 5.484374,-6.3125 13.253906,-9.828125 21.621093,-10.335938 2.757813,-0.167968 5.585938,-0.113281 8.375,-0.113281 H 76.5625 c 6.117188,0.0078 11.710938,-0.339844 17.65625,1.34375 3.828125,1.109375 7.40234,2.9375 10.52344,5.386719 0.85937,0.679687 1.64453,1.464844 2.47265,2.179687 l 0.39454,0.433594 c 0.35937,0.347656 1.43359,1.507813 1.6875,1.910156 1.95703,0.390625 4.53125,-0.75 5.94531,1.242188 0.84765,1.195312 0.64062,2.570312 0.64062,3.964843 v 3.722657 l -0.004,12.378906 -0.043,8.476563 c 0,1.433593 0.0742,2.980468 -0.0234,4.414062 -0.0234,0.371094 -0.3125,0.449219 -0.35937,0.917969 0.0586,1.136719 0.36328,2.046875 0.64843,3.15625 0.48828,1.917969 0.40235,4.183593 -0.0273,6.109375 -0.17578,0.785156 -0.47266,1.46875 -0.56641,2.265625 -0.004,0.3125 -0.0156,0.453125 0.0586,0.761719 0.0391,0.0625 0.11718,0.1875 0.14453,0.25 0.21094,1.195312 0.13281,3.507812 0.14453,4.839843 0.0312,3.351563 0.043,6.699219 0.0312,10.050781 l -0.004,10.175782 c 0,1.765625 0.0234,3.574218 -0.0195,5.339846 -0.0117,0.42187 -0.21875,1.01172 -0.48437,1.35547 -0.58985,0.76172 -1,1.02343 -1.92578,1.24218 -0.80079,0.19141 -4.07032,-0.0391 -4.51172,0.11719 z m 0,0"
       fill="#2a4a58"
       stroke="#8ab0c0"
       stroke-width="1.5"
       id="path1"
       style="display:inline" />
    <!-- Main tablet face (was #47565d → brightened to #6a8a96) -->
    <path
       d="m 108.94141,104.42578 c -0.11719,0.15235 -0.24219,0.30469 -0.3711,0.44922 -5.4375,6.14453 -13.13281,9.90234 -21.386716,10.44922 -2.761719,0.19141 -6.296875,0.10156 -9.125,0.10156 l -15.007813,0.004 H 49.585938 c -4.71875,0 -8.789063,0.17187 -13.421876,-0.73438 C 22.9375,112.11328 12.675781,101.20703 11.871094,87.808594 11.648438,84.121094 11.691406,80.5 11.691406,76.777344 V 48.367188 c 0,-3.976563 -0.136718,-7.902344 0.632813,-11.835938 0.992187,-5.054688 3.246093,-9.785156 6.636719,-13.691406 5.484374,-6.3125 13.253906,-9.828125 21.621093,-10.335938 2.757813,-0.167968 5.585938,-0.113281 8.375,-0.113281 H 76.5625 c 6.117188,0.0078 11.710938,-0.339844 17.65625,1.34375 3.828125,1.109375 7.40234,2.9375 10.52344,5.386719 0.85937,0.679687 1.64453,1.464844 2.47265,2.179687 l 0.39454,0.433594 c 0.35937,0.347656 1.43359,1.507813 1.6875,1.910156 -0.22657,0.05859 -2.75391,0.05469 -3.15625,0.05469 h -8.085942 c -0.421876,0 -0.84375,0.0078 -1.265626,0.02344 -0.117187,0.0039 -0.582031,0.05078 -0.65625,0.04297 -0.332031,-0.113281 -7.707031,-0.05859 -8.316406,0.0039 -0.253906,0.02734 -0.503906,0.09766 -0.734375,0.207031 -1.347656,0.632813 -1.769531,1.367188 -2.007812,2.765626 -0.05859,1.566406 -0.01953,3.324218 -0.01953,4.90625 l -33.972657,-0.0039 H 40.75 l -3.339844,-0.0039 c -1.453125,0 -2.761718,-0.128906 -3.886718,0.984375 -1.128907,1.117188 -0.898438,3.273438 -0.894532,4.75 l 0.0078,3.726562 0.02734,14.003907 v 31.671875 c -0.0078,1.378906 -0.0625,2.761718 -0.02344,4.140625 0.02734,0.765625 0.0039,1.507812 0.386719,2.203125 0.558594,1.011718 1.476562,1.609375 2.65625,1.660156 1.5,0.05859 3.003906,0 4.503906,0.0078 3.976562,0.02344 7.953125,0.01953 11.929688,-0.0039 l 19.835937,0.01563 c 4.324219,0.03125 8.648437,0.01172 12.972656,-0.05859 0.144531,-0.109376 0.08203,-0.04297 0.132813,-0.273438 -0.01953,1.726562 -0.0625,3.871094 -0.0039,5.585945 0.01172,1.73046 -0.05859,2.94531 1.6875,3.875 0.203124,0.10936 0.769531,0.30078 0.957031,0.3125 0.890625,0.0586 7.871093,0.15233 8.171875,-0.0234 1.210937,0.20313 2.296875,0.0742 3.507812,0.10156 2.578127,0.0508 5.156257,-0.008 7.730477,0.0117 0.34765,0.004 1.5664,0 1.83203,0.0937 z m 0,0"
       fill="#6a8a96"
       id="path2" />
    <!-- Screen bezel inner (was #313f46 → #4a6470) -->
    <path
       d="m 85.054688,100.05469 -0.390626,0.008 c -4.039062,0.0703 -8.234374,0.0117 -12.289062,0.008 H 38.445312 c -2.058593,0 -4.273437,0.0625 -6.3125,-0.128904 -1.835937,-0.171875 -3.5625,-1.738281 -4.304687,-3.335937 -0.417969,-0.902344 -0.480469,-1.828125 -0.488281,-2.828125 l 0.01172,-41.855469 -0.0078,-13.390625 v -4.015625 c 0,-2.457031 -0.132812,-4.265625 1.757812,-6.136719 0.863282,-0.863281 1.984376,-1.429687 3.199219,-1.613281 1.332031,-0.191406 4.167969,-0.109375 5.640625,-0.109375 h 10.566406 l 36.082032,-0.01172 c 0.203125,0 0.359375,-0.02344 0.484375,0.09766 -0.05859,1.566406 -0.01953,3.324218 -0.01953,4.90625 L 51.082046,31.64492 H 40.75 l -3.339844,-0.0039 c -1.453125,0 -2.761718,-0.128906 -3.886718,0.984375 -1.128907,1.117188 -0.898438,3.273438 -0.894532,4.75 l 0.0078,3.726562 0.02734,14.003907 v 31.671875 c -0.0078,1.378906 -0.0625,2.761718 -0.02344,4.140625 0.02734,0.765625 0.0039,1.507812 0.386719,2.203125 0.558594,1.011718 1.476562,1.609375 2.65625,1.660156 1.5,0.05859 3.003906,0 4.503906,0.0078 3.976562,0.02344 7.953125,0.01953 11.929688,0 l 19.835937,0.01172 c 4.324219,0.03125 8.648437,0.01172 12.972656,-0.05859 0.144531,-0.109376 0.08203,-0.04297 0.132813,-0.273438 -0.01953,1.726562 -0.0625,3.871094 -0.0039,5.585943 z m 0,0"
       fill="#4a6470"
       id="path3" />
    <!-- Right-side strip / hinge (was #313f46 → #4a6470) -->
    <path
       d="m 109.29688,23.644531 c 1.95703,0.390625 4.53125,-0.75 5.94531,1.242188 0.84765,1.195312 0.64453,2.570312 0.64062,3.964843 v 3.722657 l -0.004,12.378906 -0.043,8.476563 c 0,1.433593 0.0742,2.980468 -0.0234,4.414062 -0.0234,0.371094 -0.3125,0.449219 -0.35937,0.917969 0.0586,1.136719 0.36328,2.046875 0.64843,3.15625 0.48828,1.917969 0.40235,4.183593 -0.0273,6.109375 -0.17578,0.785156 -0.47266,1.46875 -0.56641,2.265625 -0.004,0.3125 -0.0156,0.453125 0.0586,0.761719 0.0391,0.0625 0.11718,0.1875 0.14453,0.25 0.21094,1.195312 0.13281,3.507812 0.14453,4.839843 0.0312,3.351563 0.043,6.699219 0.0312,10.050781 l -0.004,10.175782 c 0,1.765625 0.0234,3.574218 -0.0195,5.339846 -0.0117,0.42187 -0.21875,1.01172 -0.48437,1.35547 -0.58985,0.76172 -1,1.02343 -1.92578,1.24218 -0.80079,0.19141 -4.07032,-0.0391 -4.51172,0.11719 -0.26172,-0.0937 -1.48438,-0.0898 -1.83203,-0.0937 -2.57422,-0.0195 -5.15235,0.0391 -7.730474,-0.0117 -1.210937,-0.0273 -2.296875,0.10157 -3.507812,-0.10156 -0.300782,0.17578 -7.28125,0.082 -8.171875,0.0234 -0.1875,-0.0117 -0.753907,-0.20313 -0.957031,-0.3125 -1.746094,-0.92969 -1.671876,-2.14453 -1.6875,-3.875 -0.05859,-1.714846 -0.01563,-3.859378 0.0039,-5.58594 -0.07031,-2.308594 -0.0039,-4.964844 -0.0039,-7.296875 V 31.648438 c 0,-1.582032 -0.03906,-3.339844 0.01953,-4.90625 0.238281,-1.398438 0.660156,-2.132813 2.007812,-2.765626 0.230469,-0.109374 0.480469,-0.179687 0.734375,-0.207031 0.609375,-0.0625 7.984375,-0.117187 8.316406,-0.0039 0.07422,0.0078 0.539063,-0.03906 0.65625,-0.04297 0.421876,-0.01563 0.84375,-0.02344 1.265626,-0.02344 h 8.085943 c 0.40234,0 2.92968,0.0039 3.15625,-0.05469 z m 0,0"
       fill="#4a6470"
       id="path4" />
    <!-- Right strip lighter edge (was #5c6a71 → #7a9aa6) -->
    <path
       d="m 85.074219,26.742188 c 0.238281,-1.398438 0.660156,-2.132813 2.007812,-2.765626 0.230469,-0.109374 0.480469,-0.179687 0.734375,-0.207031 0.609375,-0.0625 7.984375,-0.117187 8.316406,-0.0039 -1.457031,0.460937 -2.242187,1.566406 -2.265624,3.0625 -0.05859,3.632813 -0.03516,7.265625 -0.03516,10.894531 l 0.03125,22.214844 -0.02344,27.878906 -0.0078,7.351563 c -0.0039,1.496093 -0.1875,6.175785 0.242188,7.328125 0.265625,0.70313 0.792969,1.33204 1.503906,1.625 0.09375,0.0391 0.195313,0.0703 0.292969,0.0977 -0.300782,0.17578 -7.28125,0.082 -8.171875,0.0234 -0.1875,-0.0117 -0.753907,-0.20313 -0.957031,-0.3125 -1.746094,-0.92969 -1.675782,-2.14453 -1.6875,-3.875 -0.05859,-1.71485 -0.01563,-3.859382 0.0039,-5.585944 -0.07031,-2.308594 -0.0039,-4.964844 -0.0039,-7.296875 l -0.0039,-13.738281 0.0039,-41.785156 c 0,-1.582032 -0.03906,-3.339844 0.01953,-4.90625 z m 0,0"
       fill="#7a9aa6"
       id="path5" />
    <!-- Status dots — unchanged #adb4b8 -->
    <path
       d="m 88.929688,44.371094 c 1.148437,-0.238282 2.269531,0.492187 2.5,1.625 0.230468,1.128906 -0.519532,2.230468 -1.667969,2.449218 -1.136719,0.21875 -2.238281,-0.511718 -2.46875,-1.628906 -0.226563,-1.121094 0.503906,-2.214844 1.636719,-2.445312 z m 0,0"
       fill="#adb4b8"
       id="path6" />
    <path
       d="m 89.054688,62.5625 c 1.15625,-0.167969 2.230468,0.621094 2.394531,1.761719 0.167969,1.140625 -0.640625,2.195312 -1.796875,2.351562 -1.152344,0.15625 -2.210938,-0.632812 -2.375,-1.761719 -0.164063,-1.132812 0.628906,-2.183593 1.777344,-2.351562 z m 0,0"
       fill="#adb4b8"
       id="path7" />
    <path
       d="m 89.226562,80.847656 c 1.160157,-0.07422 2.15625,0.792969 2.230469,1.933594 0.07031,1.140625 -0.808593,2.125 -1.96875,2.195312 -1.152343,0.07031 -2.148437,-0.796874 -2.222656,-1.933593 -0.07031,-1.140625 0.804687,-2.125 1.960937,-2.195313 z m 0,0"
       fill="#adb4b8"
       id="path8" />
    <!-- Scroll wheel on right edge — unchanged -->
    <path
       d="m 115.50781,70.292969 c -0.0781,0.5 -0.30859,1.015625 -0.42187,1.511719 -0.72266,3.132812 -2.73047,8.121093 -6.83203,7.347656 -1.3125,-0.246094 -2.60938,-1.675782 -3.28125,-2.75 -2.5625,-4.402344 -2.9961,-9.894532 -2.53516,-14.859375 0.125,-1.136719 0.375,-2.347657 0.61719,-3.445313 1.94531,-8.773437 8.66406,-11.136718 11.75,-1.359375 0.13281,0.414063 0.42578,1.707031 0.64844,2.023438 0.0586,1.136719 0.36328,2.046875 0.64843,3.15625 0.48828,1.917969 0.40235,4.183593 -0.0273,6.109375 -0.17578,0.785156 -0.47266,1.46875 -0.56641,2.265625 z m 0,0"
       fill="#adb4b8"
       id="path9" />
    <!-- Scroll grip lines — unchanged -->
    <!-- Combination dial inner shadow -->
    <path
       d="m 108.94141,51.972656 c 2.75,-0.199218 4.3789,4.621094 4.82031,6.746094 -1.02734,-0.0039 -2.47266,-0.07813 -3.44922,0.06641 -1.12891,0.171875 -2.01172,2.355469 -2.21875,3.28125 -0.57031,2.570313 -0.57031,7.511719 2.23438,8.828125 0.23828,0.109375 2.90625,0.06641 3.39062,0.07031 -0.4375,1.6875 -0.73828,2.761718 -1.60547,4.355468 -0.74219,1.5 -2.49609,3.148438 -4.23828,1.976563 -1.68359,-1.128906 -2.84766,-4.082031 -3.27344,-5.992187 -1.23047,-5.523438 -1.10547,-12.226563 1.72266,-17.261719 0.60547,-1.039063 1.41797,-1.800781 2.61719,-2.070314 z m 0,0"
       fill="#313f46"
       id="path11" />
    <!-- Combination dial tick marks -->
    <g
       fill="#adb4b8"
       id="g17">
      <path
         d="m 109.625,54.09375 c 0.95313,0.21875 0.92578,1.839844 0.0664,2.269531 -0.6875,-0.195312 -0.78125,-0.796875 -0.67969,-1.433593 0.0742,-0.472657 0.21875,-0.585938 0.61328,-0.835938 z m 0,0"
         id="path12" />
      <path
         d="m 105.31641,64.355469 c 0.10156,-0.0078 0.19922,-0.01172 0.30078,-0.01563 0.65234,-0.0078 1.24219,0.460937 0.48437,0.945312 -0.83984,0.21875 -1.52734,-0.402344 -0.78515,-0.929687 z m 0,0"
         id="path13" />
      <path
         d="m 106.89063,57.617188 c 0.52343,0.05469 0.77343,0.46875 0.6289,0.960937 -0.55078,-0.01563 -0.85156,-0.445313 -0.6289,-0.960937 z m 0,0"
         id="path14" />
      <path
         d="m 111.98047,56.601562 c 0.62891,0.0625 0.35547,0.710938 -0.008,0.984376 -0.57032,-0.171876 -0.30078,-0.703126 0.008,-0.984376 z m 0,0"
         id="path15" />
      <path
         d="m 111.75781,72.132812 c 0.6211,0.113282 0.57032,0.488282 0.45313,0.988282 -0.60547,-0.125 -0.64453,-0.484375 -0.45313,-0.988282 z m 0,0"
         id="path16" />
      <path
         d="m 107.24219,71.191406 c 0.21094,0.01563 0.25781,0.07031 0.34375,0.238282 -0.0234,0.300781 -0.22656,0.460937 -0.44141,0.664062 -0.13281,-0.01953 -0.12109,-0.02734 -0.25,-0.08203 -0.22656,-0.339844 0.0977,-0.578125 0.34766,-0.820314 z m 0,0"
         id="path17" />
      <path
         d="m 109.86645,72.340554 c 0.95313,0.21875 0.92578,1.839844 0.0664,2.269531 -0.6875,-0.195312 -0.78125,-0.796875 -0.67969,-1.433593 0.0742,-0.472657 0.21875,-0.585938 0.61328,-0.835938 z m 0,0"
         id="path25" />
    </g>
    <!-- Scroll nub inner dark — unchanged -->
    <path
       d="m 113.3125,59.464844 c 1.28516,0 1.66016,1.503906 1.93359,2.492187 0.53125,1.90625 0.58204,7.503907 -1.6875,8.269531 -0.84765,-0.125 -1.29296,-0.613281 -1.60546,-1.386718 -0.94922,-2.363282 -0.94922,-5.324219 -0.082,-7.710938 0.28516,-0.785156 0.66407,-1.324218 1.44141,-1.664062 z m 0,0"
       fill="#313f46"
       id="path18" />
    <!-- Scrollbar track element — unchanged -->
    <path
       d="m 96.421875,57.183594 c 1.292969,0.0078 2.5625,0.414062 3.191406,1.640625 0.550779,1.070312 0.433599,2.183593 0.433599,3.363281 v 3.195312 c 0,1.183594 -0.0156,2.410157 -0.0117,3.585938 0.008,2.5 -1.199222,3.523438 -3.648441,3.644531 -0.988281,-0.05078 -1.453125,-1.097656 -0.871094,-1.835937 0.363281,-0.460938 1.179687,-0.371094 1.730469,-0.425782 0.28125,-0.191406 0.339844,-0.269531 0.53125,-0.550781 0.08203,-1.457031 0.04297,-3.199219 0.03516,-4.683593 -0.0078,-1.652344 0.02344,-3.460938 -0.03516,-5.101563 -0.757813,-1.070313 -2.289063,-0.277344 -2.515625,-1.527344 -0.132813,-0.714843 0.398437,-1.214843 1.160156,-1.304687 z m 0,0"
       fill="#adb4b8"
       id="path19" />
    <!-- Cyan document / screen — unchanged -->
    <path
       d="m 81.613281,52.027344 0.07813,0.117187 c 0.09375,0.734375 0.03516,3.113281 0.03516,3.964844 V 77.21875 c 0,2.3125 0.01172,4.609375 -0.02734,6.933594 -0.01953,1.285156 -0.984375,2.734375 -2.378907,2.890625 -1.019531,0.113281 -2.265624,0.03906 -3.308593,0.03906 h -6.125 l -13.792969,0.0039 c -2.398438,0 -4.808594,0.0078 -7.207031,-0.0078 -0.445313,-0.02734 -1.011719,-0.05859 -1.390625,-0.300781 -1.097656,-0.71875 -1.617188,-1.617188 -1.597656,-2.921875 0.01172,-1.148438 -0.0039,-2.3125 0,-3.453125 v -27.53516 l -0.0039,-6.125 c 0,-1.0625 -0.01172,-2.144532 0.01172,-3.210938 0.01563,-0.566406 0.15625,-0.941406 0.464844,-1.414062 0.40625,-0.621094 1.1875,-1.230469 1.9375,-1.351563 0.683594,-0.105469 1.589844,-0.07031 2.300781,-0.06641 l 3.179687,0.0039 h 12.269532 c 1.320312,0 2.640625,-0.01172 3.960937,-0.01172 0.03516,0.02734 0.07031,0.05078 0.105469,0.07422 0.621094,0.476563 1.589844,1.507813 2.167969,2.078125 L 75.6875,46.179688 79.957031,50.375 c 0.539063,0.535156 1.160157,1.089844 1.65625,1.652344 z m 0,0"
       fill="#2ed3dd"
       id="path20" />
    <!-- Folded corner on document — unchanged -->
    <path
       d="m 70.125,40.765625 c 0.621094,0.476563 1.589844,1.507813 2.167969,2.078125 L 75.6875,46.179688 79.957031,50.375 c 0.539063,0.535156 1.160157,1.089844 1.65625,1.652344 -0.371093,0.07031 -0.941406,0.05859 -1.328125,0.05469 -2.386718,-0.03516 -4.78125,0.02734 -7.167968,-0.0078 -0.84375,-0.01563 -1.777344,-0.433594 -2.316407,-1.066407 C 70.472656,50.617188 70.25,50.148438 70.160156,49.648438 70.050781,49.035156 70.0625,46.34375 70.085938,45.597656 c 0.03516,-1.359375 -0.07813,-3.539062 0.03906,-4.832031 z m 0,0"
       fill="#12a1ac"
       id="path21" />
    <!-- Code glyphs: slash and brackets — unchanged white -->
    <path
       d="m 65.144531,55.558594 c 0.433594,-0.01563 2.183594,0.15625 2.121094,0.769531 -0.105469,1.105469 -0.433594,2.257813 -0.707031,3.339844 -0.503906,2.019531 -1.027344,4.039062 -1.5625,6.050781 -0.6875,2.652344 -1.300782,5.335938 -2.003906,7.984375 -0.07813,0.285156 -0.234376,0.785156 -0.429688,1 -0.226562,0 -0.449219,-0.01563 -0.671875,-0.04687 -0.445313,-0.0625 -1.152344,-0.152344 -1.429687,-0.515625 -0.09766,-0.566406 0.761718,-3.492187 0.933593,-4.183594 L 63.75,60.664062 c 0.222656,-0.867187 1.03125,-4.441406 1.394531,-5.105468 z m 0,0"
       fill="#fefefe"
       id="path22" />
    <path
       d="m 57.9375,58.273438 c 0.289062,0.0039 0.492188,0.08203 0.707031,0.296874 0.207031,0.199219 1.042969,0.957032 0.953125,1.265626 -0.148437,0.488281 -1.332031,1.511718 -1.683594,1.859374 -1.164062,1.132813 -2.320312,2.277344 -3.464843,3.433594 0.351562,0.5 1.289062,1.316406 1.765625,1.792969 0.632812,0.664063 1.445312,1.378906 2.066406,2.035156 0.820312,0.867188 1.96875,1.320313 0.695312,2.425781 -0.386718,0.335938 -0.433593,0.46875 -0.953124,0.695313 C 57.351562,71.785156 54.886719,69 54.140625,68.386719 53.328125,67.714844 52.28125,66.503906 51.492188,65.757812 51.34375,65.613281 51.175781,65.183594 51.25,64.957031 c 0.421875,-0.773437 1.605469,-1.792969 2.199219,-2.371093 l 2.496093,-2.445313 c 0.394532,-0.382813 1.605469,-1.632813 1.992188,-1.867187 z m 0,0"
       fill="#fefefe"
       id="path23" />
    <path
       d="m 69.519531,58.214844 c 0.605469,0.171875 2.613281,2.339844 3.175781,2.882812 0.742188,0.714844 1.480469,1.4375 2.210938,2.164063 0.441406,0.4375 0.878906,0.84375 1.269531,1.324219 0.359375,0.4375 0.257813,0.914062 -0.121093,1.300781 -1.527344,1.566406 -3.113282,3.082031 -4.671876,4.621093 -0.5,0.492188 -1.101562,1.140626 -1.671874,1.523438 -0.550782,0.0039 -1.488282,-1.113281 -1.75,-1.566406 C 68.308594,69.875 68.902344,69.4375 69.40625,68.953125 l 2.046875,-1.996094 c 0.433594,-0.417969 1.445313,-1.367187 1.777344,-1.78125 -1.347657,-1.453125 -2.800781,-2.796875 -4.207031,-4.195312 -0.1875,-0.183594 -1.007813,-0.976563 -0.972657,-1.214844 0.07031,-0.441406 1.121094,-1.277344 1.46875,-1.550781 z m 0,0"
       fill="#fefefe"
       id="path24" />
  </g>
</svg>
